<svg xmlns="http://www.w3.org/2000/svg" width="894" height="420" role="img" aria-label="Hassium bandwidth savings across versions">
<title>Hassium bandwidth savings: 1.20.1, 1.21.1, 1.21.11 across Fabric and NeoForge</title>
<rect width="894" height="420" fill="#fafafa" rx="4"/>
<text x="447.0" y="30" text-anchor="middle" font-family="Verdana,Geneva,sans-serif" font-size="15" font-weight="bold" fill="#333">Hassium Bandwidth Savings · ROUND1 VD=20 (cold cache)</text>
<line x1="90" y1="340.0" x2="834" y2="340.0" stroke="#e0e0e0" stroke-width="0.5"/>
<text x="82" y="344.0" text-anchor="end" font-family="Verdana,sans-serif" font-size="10" fill="#666">0</text>
<line x1="90" y1="288.0" x2="834" y2="288.0" stroke="#e0e0e0" stroke-width="0.5"/>
<text x="82" y="292.0" text-anchor="end" font-family="Verdana,sans-serif" font-size="10" fill="#666">10</text>
<line x1="90" y1="236.0" x2="834" y2="236.0" stroke="#e0e0e0" stroke-width="0.5"/>
<text x="82" y="240.0" text-anchor="end" font-family="Verdana,sans-serif" font-size="10" fill="#666">20</text>
<line x1="90" y1="184.0" x2="834" y2="184.0" stroke="#e0e0e0" stroke-width="0.5"/>
<text x="82" y="188.0" text-anchor="end" font-family="Verdana,sans-serif" font-size="10" fill="#666">30</text>
<line x1="90" y1="132.0" x2="834" y2="132.0" stroke="#e0e0e0" stroke-width="0.5"/>
<text x="82" y="136.0" text-anchor="end" font-family="Verdana,sans-serif" font-size="10" fill="#666">40</text>
<line x1="90" y1="80.0" x2="834" y2="80.0" stroke="#e0e0e0" stroke-width="0.5"/>
<text x="82" y="84.0" text-anchor="end" font-family="Verdana,sans-serif" font-size="10" fill="#666">50</text>
<text x="16" y="210.0" text-anchor="middle" font-family="Verdana,sans-serif" font-size="11" fill="#666" transform="rotate(-90, 16, 210.0)">Bytes received (MB)</text>
<line x1="90" y1="340.0" x2="834" y2="340.0" stroke="#666" stroke-width="1"/>
<rect x="108.0" y="105.5" width="36" height="234.5" fill="#999999" rx="2"/>
<text x="126.0" y="99.5" text-anchor="middle" font-family="Verdana,sans-serif" font-size="9" fill="#666">45.1</text>
<rect x="148.0" y="304.1" width="36" height="35.9" fill="#4CAF50" rx="2"/>
<text x="166.0" y="298.1" text-anchor="middle" font-family="Verdana,sans-serif" font-size="9" fill="#2E7D32" font-weight="bold">6.9</text>
<text x="146.0" y="286.1" text-anchor="middle" font-family="Verdana,sans-serif" font-size="10" fill="#2E7D32" font-weight="bold">↓84.7%</text>
<text x="146.0" y="356.0" text-anchor="middle" font-family="Verdana,sans-serif" font-size="9" fill="#333">1.20.1</text>
<text x="146.0" y="370.0" text-anchor="middle" font-family="Verdana,sans-serif" font-size="8" fill="#888">Fabric</text>
<rect x="232.0" y="81.1" width="36" height="258.9" fill="#999999" rx="2"/>
<text x="250.0" y="75.1" text-anchor="middle" font-family="Verdana,sans-serif" font-size="9" fill="#666">49.8</text>
<rect x="272.0" y="297.9" width="36" height="42.1" fill="#4CAF50" rx="2"/>
<text x="290.0" y="291.9" text-anchor="middle" font-family="Verdana,sans-serif" font-size="9" fill="#2E7D32" font-weight="bold">8.1</text>
<text x="270.0" y="279.9" text-anchor="middle" font-family="Verdana,sans-serif" font-size="10" fill="#2E7D32" font-weight="bold">↓83.7%</text>
<text x="270.0" y="356.0" text-anchor="middle" font-family="Verdana,sans-serif" font-size="9" fill="#333">1.20.1</text>
<text x="270.0" y="370.0" text-anchor="middle" font-family="Verdana,sans-serif" font-size="8" fill="#888">NeoForge</text>
<rect x="356.0" y="175.2" width="36" height="164.8" fill="#999999" rx="2"/>
<text x="374.0" y="169.2" text-anchor="middle" font-family="Verdana,sans-serif" font-size="9" fill="#666">31.7</text>
<rect x="396.0" y="307.2" width="36" height="32.8" fill="#4CAF50" rx="2"/>
<text x="414.0" y="301.2" text-anchor="middle" font-family="Verdana,sans-serif" font-size="9" fill="#2E7D32" font-weight="bold">6.3</text>
<text x="394.0" y="289.2" text-anchor="middle" font-family="Verdana,sans-serif" font-size="10" fill="#2E7D32" font-weight="bold">↓80.1%</text>
<text x="394.0" y="356.0" text-anchor="middle" font-family="Verdana,sans-serif" font-size="9" fill="#333">1.21.1</text>
<text x="394.0" y="370.0" text-anchor="middle" font-family="Verdana,sans-serif" font-size="8" fill="#888">Fabric</text>
<rect x="480.0" y="150.7" width="36" height="189.3" fill="#999999" rx="2"/>
<text x="498.0" y="144.7" text-anchor="middle" font-family="Verdana,sans-serif" font-size="9" fill="#666">36.4</text>
<rect x="520.0" y="300.0" width="36" height="40.0" fill="#4CAF50" rx="2"/>
<text x="538.0" y="294.0" text-anchor="middle" font-family="Verdana,sans-serif" font-size="9" fill="#2E7D32" font-weight="bold">7.7</text>
<text x="518.0" y="282.0" text-anchor="middle" font-family="Verdana,sans-serif" font-size="10" fill="#2E7D32" font-weight="bold">↓78.9%</text>
<text x="518.0" y="356.0" text-anchor="middle" font-family="Verdana,sans-serif" font-size="9" fill="#333">1.21.1</text>
<text x="518.0" y="370.0" text-anchor="middle" font-family="Verdana,sans-serif" font-size="8" fill="#888">NeoForge</text>
<rect x="604.0" y="176.7" width="36" height="163.3" fill="#999999" rx="2"/>
<text x="622.0" y="170.7" text-anchor="middle" font-family="Verdana,sans-serif" font-size="9" fill="#666">31.4</text>
<rect x="644.0" y="308.3" width="36" height="31.7" fill="#4CAF50" rx="2"/>
<text x="662.0" y="302.3" text-anchor="middle" font-family="Verdana,sans-serif" font-size="9" fill="#2E7D32" font-weight="bold">6.1</text>
<text x="642.0" y="290.3" text-anchor="middle" font-family="Verdana,sans-serif" font-size="10" fill="#2E7D32" font-weight="bold">↓80.6%</text>
<text x="642.0" y="356.0" text-anchor="middle" font-family="Verdana,sans-serif" font-size="9" fill="#333">1.21.11</text>
<text x="642.0" y="370.0" text-anchor="middle" font-family="Verdana,sans-serif" font-size="8" fill="#888">Fabric</text>
<rect x="728.0" y="164.8" width="36" height="175.2" fill="#999999" rx="2"/>
<text x="746.0" y="158.8" text-anchor="middle" font-family="Verdana,sans-serif" font-size="9" fill="#666">33.7</text>
<rect x="768.0" y="303.6" width="36" height="36.4" fill="#4CAF50" rx="2"/>
<text x="786.0" y="297.6" text-anchor="middle" font-family="Verdana,sans-serif" font-size="9" fill="#2E7D32" font-weight="bold">7.0</text>
<text x="766.0" y="285.6" text-anchor="middle" font-family="Verdana,sans-serif" font-size="10" fill="#2E7D32" font-weight="bold">↓79.4%</text>
<text x="766.0" y="356.0" text-anchor="middle" font-family="Verdana,sans-serif" font-size="9" fill="#333">1.21.11</text>
<text x="766.0" y="370.0" text-anchor="middle" font-family="Verdana,sans-serif" font-size="8" fill="#888">NeoForge</text>
<rect x="90" y="398" width="12" height="12" fill="#999999" rx="1"/>
<text x="106" y="408" font-family="Verdana,sans-serif" font-size="10" fill="#666">Vanilla Zlib</text>
<rect x="200" y="398" width="12" height="12" fill="#4CAF50" rx="1"/>
<text x="216" y="408" font-family="Verdana,sans-serif" font-size="10" fill="#2E7D32">Hassium ZSTD</text>
<text x="335" y="408" font-family="Verdana,sans-serif" font-size="9" fill="#888">Bar top = ↓% saved · Conditions: VD=20 first join (no cache hits)</text>
</svg>